:version 1.10
:name ASF
:units
  mass 1
  length 1
  angle deg
:documentation
  ASF file generated by Kaydara
:root
  axis xyz
  order  tx ty tz rx ry rz
  position 0 0 0
  orientation 0 0 0
:bonedata
  begin
    id 1
    name SpineDummy
    direction 0.999998 -0.00179978 1.38929e-006
    length 3.60008
    axis 0 0 0 xyz
  end
  begin
    id 2
    name Spine
    direction 0.964365 0.262802 0.0305839
    length 8.13928
    axis 1.33928 -1.75354 15.2838 xyz
    dof rx ry rz
  end
  begin
    id 3
    name Spine1
    direction 0.811168 0.572065 0.12144
    length 7.14954
    axis 2.2224 -6.9761 35.2157 xyz
    dof rx ry rz
  end
  begin
    id 4
    name Neck
    direction 0 0 0
    length 0
    axis 2.2224 -6.9761 35.2157 xyz
    dof rx ry rz
  end
  begin
    id 5
    name HeadDummy
    direction 0.810939 0.572387 0.121455
    length 3.55534
    axis 2.2224 -6.9761 35.2157 xyz
  end
  begin
    id 6
    name Head
    direction 0.998226 -0.000232542 0.0595419
    length 7.35666
    axis -3.03688 -3.41352 -0.0133467 xyz
    dof rx ry rz
  end
  begin
    id 7
    name R_ClavicleDummy
    direction 0.531669 -0.194489 -0.824319
    length 2.49392
    axis 2.2224 -6.9761 35.2157 xyz
  end
  begin
    id 8
    name R_Clavicle
    direction -0.155119 0.0480802 -0.986725
    length 4.485
    axis -54.2764 80.6538 162.779 xyz
    dof rx ry rz
  end
  begin
    id 9
    name R_UpperArm
    direction -0.955567 0.200068 -0.216484
    length 10.1122
    axis -72.9943 12.5026 168.175 xyz
    dof rx ry rz
  end
  begin
    id 10
    name R_Forearm
    direction -0.61433 0.385743 0.688332
    length 9.39148
    axis -117.015 -43.4982 147.875 xyz
    dof rx ry rz
  end
  begin
    id 11
    name R_Hand
    direction -0.699429 0.0170333 0.714499
    length 3.66324
    axis -45.0303 -36.7097 175.478 xyz
    dof rx ry rz
  end
  begin
    id 12
    name L_ClavicleDummy
    direction 0.40287 -0.36502 0.839319
    length 2.49392
    axis 2.2224 -6.9761 35.2157 xyz
  end
  begin
    id 13
    name L_Clavicle
    direction -0.231271 -0.0726419 0.970174
    length 4.485
    axis 18.4357 -75.9711 -162.563 xyz
    dof rx ry rz
  end
  begin
    id 14
    name L_UpperArm
    direction -0.917494 0.144359 0.370629
    length 10.1122
    axis 56.0417 -21.7544 171.058 xyz
    dof rx ry rz
  end
  begin
    id 15
    name L_Forearm
    direction -0.496786 0.615074 -0.612281
    length 9.39148
    axis 89.8094 37.7546 128.927 xyz
    dof rx ry rz
  end
  begin
    id 16
    name L_Hand
    direction -0.409932 0.64962 -0.640274
    length 3.66324
    axis -0.424369 32.133 128.52 xyz
    dof rx ry rz
  end
  begin
    id 17
    name L_ThighDummy
    direction -1.84081e-006 1.87549e-006 1
    length 3.13049
    axis 0 0 0 xyz
  end
  begin
    id 18
    name L_Thigh
    direction -0.947739 0.307978 0.083308
    length 17.9961
    axis 173.219 -4.77873 161.998 xyz
    dof rx ry rz
  end
  begin
    id 19
    name L_Calf
    direction -0.728814 -0.684427 0.0197583
    length 13.3367
    axis 167.331 -1.13214 -136.799 xyz
    dof rx ry rz
  end
  begin
    id 20
    name L_Foot
    direction -0.9028 0.418719 0.0981191
    length 5.8674
    axis 163.436 11.5135 -155.37 xyz
    dof rx ry rz
  end
  begin
    id 21
    name L_Toe0
    direction -0.35341 0.886259 0.299411
    length 4.75286
    axis 169.316 -17.4222 111.74 xyz
    dof rx ry rz
  end
  begin
    id 22
    name R_ThighDummy
    direction 9.32778e-007 -8.82053e-007 -1
    length 3.13049
    axis 0 0 0 xyz
  end
  begin
    id 23
    name R_Thigh
    direction -0.925064 0.37528 -0.0585023
    length 17.9961
    axis -178.698 3.35385 157.919 xyz
    dof rx ry rz
  end
  begin
    id 24
    name R_Calf
    direction -0.68969 -0.718776 -0.0876886
    length 13.3367
    axis -160.504 5.03065 -133.817 xyz
    dof rx ry rz
  end
  begin
    id 25
    name R_Foot
    direction -0.857405 0.418858 -0.299022
    length 5.8674
    axis -161.328 4.38911 -154.413 xyz
    dof rx ry rz
  end
  begin
    id 26
    name R_Toe0
    direction -0.100745 0.952789 -0.286433
    length 4.75286
    axis 171.683 16.6445 96.0359 xyz
    dof rx ry rz
  end
:hierarchy
  begin
    root SpineDummy L_ThighDummy R_ThighDummy
    SpineDummy Spine
    Spine Spine1
    Spine1 Neck
    Neck HeadDummy R_ClavicleDummy L_ClavicleDummy
    HeadDummy Head
    R_ClavicleDummy R_Clavicle
    R_Clavicle R_UpperArm
    R_UpperArm R_Forearm
    R_Forearm R_Hand
    L_ClavicleDummy L_Clavicle
    L_Clavicle L_UpperArm
    L_UpperArm L_Forearm
    L_Forearm L_Hand
    L_ThighDummy L_Thigh
    L_Thigh L_Calf
    L_Calf L_Foot
    L_Foot L_Toe0
    R_ThighDummy R_Thigh
    R_Thigh R_Calf
    R_Calf R_Foot
    R_Foot R_Toe0
  end

:SAMPLES-PER-SECOND 30
:FULLY-SPECIFIED
:DEGREES
308
root  -0.369854 32.8916 12.6378 -27.0238 7.14032 90.3896
Spine  -0.0374115 6.26154 3.02077
Spine1  -0.897464 -7.09375 -0.900312
Neck  3.97569e-016 0 -2.38542e-015
Head  -49.1354 8.68574 11.0008
R_Clavicle  -0.669052 -6.28695 -5.47379
R_UpperArm  -11.8104 -3.99428 -3.91881
R_Forearm  -11.8829 -2.43761 2.00272
R_Hand  0.108947 8.02368 -10.3757
L_Clavicle  -0.301638 7.24798 1.3336
L_UpperArm  1.92379 -12.7588 -15.0695
L_Forearm  0.205308 0.331527 0.376713
L_Hand  -0.451502 4.15189 -5.14505
L_Thigh  2.46075 -11.7823 6.7108
L_Calf  8.16552 -2.05495 15.0144
L_Foot  0.711041 0.731695 2.58636
L_Toe0  1.1199 0.0164387 -5.58281
R_Thigh  16.5315 -9.71593 7.46144
R_Calf  -3.62466 3.56548 11.1351
R_Foot  0.887631 4.35919 4.98894
R_Toe0  -1.78853 -0.272796 -17.3235
309
root  -0.0714428 32.799 13.3822 -31.8155 7.17349 89.7654
Spine  1.65271 7.72418 4.12981
Spine1  0.36751 -7.87571 -1.1225
Neck  3.97569e-016 0 -2.38542e-015
Head  -50.1702 8.76385 11.0222
R_Clavicle  -1.24785 -2.01227 -7.15794
R_UpperArm  -19.0455 -4.77515 -18.8231
R_Forearm  -13.1564 -6.38659 5.31597
R_Hand  0.284358 8.68736 -9.53617
L_Clavicle  -0.230579 2.75108 0.890355
L_UpperArm  17.0278 -17.8326 -36.4583
L_Forearm  4.65469 2.00353 2.31246
L_Hand  -0.424638 3.94089 -4.94031
L_Thigh  -0.109525 -12.5643 1.40926
L_Calf  5.75332 -1.25211 8.87947
L_Foot  1.55039 3.84061 2.56042
L_Toe0  5.85892 -0.508847 -1.47855
R_Thigh  18.2229 -4.03402 11.5985
R_Calf  -5.62139 6.39954 20.5324
R_Foot  0.956135 4.86157 6.53855
R_Toe0  -1.78853 -0.272791 -17.3235
310
root  0.193997 32.3393 14.0874 -36.6748 7.83236 89.8195
Spine  3.50931 8.45871 3.88431
Spine1  2.14662 -8.35608 -0.941258
Neck  3.97569e-016 0 -2.38542e-015
Head  -50.4199 7.41305 10.4957
R_Clavicle  -1.93035 4.31695 -7.96854
R_UpperArm  -21.6123 -4.41099 -32.1306
R_Forearm  -12.589 -10.3839 8.7412
R_Hand  0.614825 8.56353 -7.02078
L_Clavicle  -0.497681 -3.13093 4.50221
L_UpperArm  24.6882 -22.2509 -54.693
L_Forearm  7.67721 3.52571 4.08062
L_Hand  -0.460782 4.32173 -5.15546
L_Thigh  -3.20805 -13.5078 -4.01289
L_Calf  2.87888 -1.18367 8.31887
L_Foot  2.98489 6.45094 5.28428
L_Toe0  10.2228 -1.59137 3.28508
R_Thigh  17.4224 2.11041 14.9545
R_Calf  -7.90281 9.98536 31.6656
R_Foot  1.08386 5.38882 7.32598
R_Toe0  -1.78853 -0.272743 -17.3235
311
root  0.34064 31.5544 14.7435 -38.6849 8.97751 90.1125
Spine  4.06613 9.55569 3.86034
Spine1  2.56163 -8.65773 -3.02644
Neck  3.97569e-016 0 -2.38542e-015
Head  -49.7185 5.61914 10.4459
R_Clavicle  -2.53887 10.8845 -8.1796
R_UpperArm  -19.3967 -3.20752 -41.7044
R_Forearm  -12.7089 -12.3855 10.4987
R_Hand  0.960413 7.75139 -3.59808
L_Clavicle  -0.612213 -13.5346 3.20704
L_UpperArm  25.9655 -27.0734 -69.5444
L_Forearm  8.95559 5.55153 6.44916
L_Hand  -0.527597 5.31656 -5.35572
L_Thigh  -4.64006 -15.1174 -8.57412
L_Calf  0.378786 -1.69464 12.1253
L_Foot  6.24835 9.07669 13.7914
L_Toe0  6.16835 -0.984382 2.63608
R_Thigh  10.9422 6.62592 19.0806
R_Calf  -5.16359 13.1771 36.3968
R_Foot  -0.40622 0.893811 6.2843
R_Toe0  -1.78853 -0.272666 -17.3235
312
root  0.536116 30.6146 15.3795 -37.1389 9.73808 90.3491
Spine  3.0266 11.1221 4.98661
Spine1  0.90779 -7.59851 -6.99396
Neck  3.97569e-016 0 -2.38542e-015
Head  -47.9182 4.09816 10.4464
R_Clavicle  -2.78882 16.6251 -7.46807
R_UpperArm  -16.1544 -0.29953 -46.8561
R_Forearm  -15.5818 -11.2614 9.50735
R_Hand  0.940221 6.00005 -1.42408
L_Clavicle  -2.92317 -20.7469 11.1182
L_UpperArm  24.5346 -32.0371 -80.6995
L_Forearm  9.14166 8.0506 9.41006
L_Hand  -0.615595 6.42194 -5.67206
L_Thigh  -4.82583 -16.3759 -9.57745
L_Calf  0.159357 -1.8636 13.3675
L_Foot  9.89997 10.3294 23.7018
L_Toe0  3.96072 -0.219108 -2.3751
R_Thigh  3.30012 9.26768 22.8628
R_Calf  0.600241 13.0203 36.2462
R_Foot  -2.38735 -6.59439 2.8893
R_Toe0  -1.78853 -0.272577 -17.3235
313
root  0.587508 29.8062 15.8428 -34.8382 9.20693 89.4429
Spine  1.42105 11.9716 6.46961
Spine1  -1.42129 -3.97237 -9.48631
Neck  3.97569e-016 0 -2.38542e-015
Head  -44.5346 2.40406 10.6423
R_Clavicle  -2.43128 19.3295 -5.86114
R_UpperArm  -13.7422 3.86193 -45.4366
R_Forearm  -18.4788 -7.16714 5.97764
R_Hand  0.492526 3.38643 -1.40468
L_Clavicle  -4.26378 -22.6141 14.7108
L_UpperArm  20.8153 -36.1726 -84.6152
L_Forearm  5.54122 10.4593 12.3235
L_Hand  -0.671649 7.22207 -5.79459
L_Thigh  -6.3426 -16.8032 -7.9914
L_Calf  1.22169 -1.08655 7.54971
L_Foot  11.8233 10.5921 28.9186
L_Toe0  3.02897 -0.105163 -3.67566
R_Thigh  0.923928 10.2906 24.6501
R_Calf  1.69089 9.95111 33.1074
R_Foot  -3.69287 -13.4131 -0.735364
R_Toe0  -1.78853 -0.272493 -17.3235
314
root  0.152759 29.1661 15.9075 -34.4251 6.83081 87.1189
Spine  0.400364 11.5508 6.65157
Spine1  -2.68511 2.12359 -8.88617
Neck  3.97569e-016 0 -2.38542e-015
Head  -39.7159 0.185551 13.4414
R_Clavicle  -2.14261 16.5755 -5.59673
R_UpperArm  -8.34478 6.74274 -34.6892
R_Forearm  -14.5476 -1.30144 1.0577
R_Hand  0.0999241 1.25586 -1.83202
L_Clavicle  -3.85583 -20.8601 13.9616
L_UpperArm  10.9996 -37.4913 -78.2512
L_Forearm  -4.78572 11.8621 14.0562
L_Hand  -0.587728 7.9575 -4.74789
L_Thigh  -9.17497 -15.7219 -7.91017
L_Calf  1.60825 0.188918 -1.68298
L_Foot  11.3545 9.90762 28.5348
L_Toe0  4.69122 -0.55307 0.794413
R_Thigh  -1.21989 11.0279 24.454
R_Calf  2.39355 8.1756 26.6491
R_Foot  -3.2228 -13.0019 -2.16159
R_Toe0  -1.78853 -0.27243 -17.3235
315
root  -0.825172 28.6501 15.5209 -35.0573 4.00975 83.9757
Spine  -0.863534 9.60322 3.84987
Spine1  -3.26627 9.02356 -6.48838
Neck  3.97569e-016 0 -2.38542e-015
Head  -34.8691 -2.14032 20.5783
R_Clavicle  -1.85838 8.84181 -6.35128
R_UpperArm  1.97406 6.02001 -15.1956
R_Forearm  -1.84795 6.02271 -5.05658
R_Hand  -0.126251 -0.240872 -1.37771
L_Clavicle  -2.12162 -17.0916 8.88385
L_UpperArm  -2.73872 -33.423 -63.1209
L_Forearm  -18.6606 11.2812 13.3375
L_Hand  -0.451874 9.80607 -3.11393
L_Thigh  -11.4696 -14.1765 -11.4644
L_Calf  1.42225 1.08644 -8.19275
L_Foot  10.7071 9.66564 26.9989
L_Toe0  4.69854 -1.07442 5.89201
R_Thigh  0.445206 10.9112 23.0666
R_Calf  2.97542 5.67053 18.008
R_Foot  -2.34965 -8.9603 -1.1159
R_Toe0  -1.78853 -0.272404 -17.3235
316
root  -2.15598 28.1551 14.8187 -34.9371 2.36767 80.3736
Spine  -3.42551 6.04214 -1.58749
Spine1  -4.60608 15.1849 -3.60107
Neck  3.97569e-016 0 -2.38542e-015
Head  -31.0773 -4.29839 29.6942
R_Clavicle  -0.999628 -2.04534 -5.73126
R_UpperArm  12.3114 2.08359 8.62086
R_Forearm  15.1655 14.5296 -12.4647
R_Hand  -0.488701 -2.24925 -1.61082
L_Clavicle  -1.02061 -8.83785 6.59167
L_UpperArm  -11.6951 -24.938 -44.8225
L_Forearm  -27.1087 8.70441 10.2005
L_Hand  -0.215066 12.2228 -1.13366
L_Thigh  -12.1495 -13.7708 -17.2278
L_Calf  1.74165 1.51038 -11.2844
L_Foot  10.1553 9.01961 26.2909
L_Toe0  4.81798 -1.47818 9.16029
R_Thigh  2.658 8.71149 20.5144
R_Calf  6.95183 2.60876 8.15001
R_Foot  -1.78274 -5.65445 0.89331
R_Toe0  -1.80876 -0.272792 -17.335
317
root  -3.59757 27.6012 13.9146 -34.4731 1.16441 76.5847
Spine  -6.31058 2.19558 -8.09475
Spine1  -6.21979 19.5839 0.91931
Neck  3.97569e-016 0 -2.38542e-015
Head  -28.0787 -6.77595 36.5719
R_Clavicle  -0.205457 -11.7049 -4.27629
R_UpperArm  19.7671 -3.29552 32.0587
R_Forearm  36.9145 21.7291 -19.3662
R_Hand  -1.0115 -5.34957 -2.07475
L_Clavicle  -0.116835 0.368196 0.156799
L_UpperArm  -13.8147 -16.6546 -26.7578
L_Forearm  -27.3957 4.70247 5.46425
L_Hand  0.110261 13.2086 0.913536
L_Thigh  -11.5682 -13.7485 -24.0093
L_Calf  2.23223 1.74283 -12.95
L_Foot  9.34883 7.2543 26.4521
L_Toe0  5.38817 -1.86645 10.9172
R_Thigh  2.84214 6.33081 16.2782
R_Calf  13.5117 -0.521683 -1.60215
R_Foot  -1.59175 -3.59424 3.71718
R_Toe0  -1.60357 -0.269248 -17.2184
318
root  -4.90081 26.9946 12.935 -35.1103 -0.193225 73.808
Spine  -7.97093 -0.20361 -16.0727
Spine1  -6.44421 21.7312 7.98622
Neck  3.97569e-016 0 -2.38542e-015
Head  -25.9849 -9.55443 40.1817
R_Clavicle  0.260721 -18.879 -2.95704
R_UpperArm  26.9156 -10.977 52.5828
R_Forearm  60.1188 26.7121 -24.7411
R_Hand  -1.48431 -7.98148 -0.533317
L_Clavicle  -0.331172 11.5341 0.622697
L_UpperArm  -11.9004 -11.0585 -10.4683
L_Forearm  -24.0353 0.585093 0.686435
L_Hand  0.244303 12.6521 1.78867
L_Thigh  -11.0545 -13.3135 -30.3962
L_Calf  2.74475 1.85718 -13.7554
L_Foot  8.53323 5.11972 27.2333
L_Toe0  5.90652 -2.19887 12.0876
R_Thigh  0.818163 5.98542 11.7153
R_Calf  18.4207 -3.14587 -9.75549
R_Foot  -1.22173 -0.466394 9.08336
R_Toe0  -0.945617 -0.257746 -16.8444
319
root  -5.90787 26.3577 12.0513 -36.869 -1.45293 72.666
Spine  -8.3968 -0.0364904 -24.3271
Spine1  -5.71388 21.5115 14.478
Neck  3.97569e-016 0 -2.38542e-015
Head  -25.356 -11.2731 42.5683
R_Clavicle  0.531052 -25.3717 -1.43424
R_UpperArm  34.6219 -19.7882 69.279
R_Forearm  73.3395 29.331 -27.8534
R_Hand  -1.42114 -7.75518 -1.48669
L_Clavicle  -0.54557 19.8508 0.452087
L_UpperArm  -7.31525 -7.66279 2.5971
L_Forearm  -20.7753 -1.26813 -1.45422
L_Hand  0.157198 11.7078 1.28733
L_Thigh  -11.3325 -12.7993 -35.2677
L_Calf  2.89364 1.83432 -13.5692
L_Foot  8.38386 3.75383 29.1178
L_Toe0  5.63038 -2.24994 13.0244
R_Thigh  -1.08728 6.96329 8.7098
R_Calf  18.3136 -4.97447 -15.5557
R_Foot  -0.601723 2.96424 15.8272
R_Toe0  -1.39109 -0.265949 -17.0976
